PathFileType	4	(x/y/z)	S06_SL_Cal_T01
DataRate	CameraRate	NumFrames	NumMarkers	Units	OrigDataRate	OrigDataStartFrame	OrigNumFrames
240	240	7	51	mm	240	1800	2399
Frame#	Time	Sternum			R.Acromium			L.Acromium			Top.Head			R.ASIS			L.ASIS			R.PSIS			L.PSIS			R.Great.Tro			L.Great.Tro			R.Iliac.Crest			L.Iliac.Crest			V.Sacral			R.Thigh.Upper.Post			R.Thigh.Lower.Ant			R.Thigh.Lower.Post			R.Thigh.Upper.Ant			R.Knee.Lat			R.Knee.Med			R.Shank.Upper.Post			R.Shank.Lower.Ant			R.Shank.Lower.Post			R.Shank.Upper.Ant			R.Ankle.Lat			R.Ankle.Med			R.Heel.Upper			R.Heel.Med			R.Heel.Lat			R.Toe.Lat			R.Toe.Med			R.Toe.Tip			L.Thigh.Upper.Post			L.Thigh.Lower.Ant			L.Thigh.Lower.Post			L.Thigh.Upper.Ant			L.Knee.Lat			L.Knee.Med			L.Shank.Upper.Post			L.Shank.Lower.Ant			L.Shank.Lower.Post			L.Shank.Upper.Ant			L.Ankle.Lat			L.Ankle.Med			L.Heel.Upper			L.Heel.Med			L.Heel.Lat			L.Toe.Lat			L.Toe.Med			L.Toe.Tip			Cervical.Spine			Back			
		X1	Y1	Z1	X2	Y2	Z2	X3	Y3	Z3	X4	Y4	Z4	X5	Y5	Z5	X6	Y6	Z6	X7	Y7	Z7	X8	Y8	Z8	X9	Y9	Z9	X10	Y10	Z10	X11	Y11	Z11	X12	Y12	Z12	X13	Y13	Z13	X14	Y14	Z14	X15	Y15	Z15	X16	Y16	Z16	X17	Y17	Z17	X18	Y18	Z18	X19	Y19	Z19	X20	Y20	Z20	X21	Y21	Z21	X22	Y22	Z22	X23	Y23	Z23	X24	Y24	Z24	X25	Y25	Z25	X26	Y26	Z26	X27	Y27	Z27	X28	Y28	Z28	X29	Y29	Z29	X30	Y30	Z30	X31	Y31	Z31	X32	Y32	Z32	X33	Y33	Z33	X34	Y34	Z34	X35	Y35	Z35	X36	Y36	Z36	X37	Y37	Z37	X38	Y38	Z38	X39	Y39	Z39	X40	Y40	Z40	X41	Y41	Z41	X42	Y42	Z42	X43	Y43	Z43	X44	Y44	Z44	X45	Y45	Z45	X46	Y46	Z46	X47	Y47	Z47	X48	Y48	Z48	X49	Y49	Z49	X50	Y50	Z50	X51	Y51	Z51	

1800	7.4958	757.57	1313.7	317.45	613.44	1543.3	466.89	613.85	1535.8	150.64	676.99	1828.1	311.47	725.23	1066	441.84	732.06	1059.2	189.49	527.26	1085.2	344.08	528.31	1088.2	263.8	662.78	1001.3	491.23	633.65	995.71	135.76	639.05	1142.9	470.36	662.69	1135.2	151.44	513.88	1051.6	306.77	641.87	752.78	497.52	691.4	667.79	468.77	623.69	666.5	482.26	713.81	755.48	481.27	635.07	552.21	476.75	641.67	544.77	349.91	570.22	327.93	494.75	626.52	259.33	480.46	562.01	250.94	486.09	635.42	335.24	489.13	587.61	112.12	472.12	605.59	112.17	385.26	522.32	74.161	428.71	531.13	43.436	397.88	528.96	42.887	463.45	704.51	36.378	507.04	734.39	44.482	387.46	799.72	54.481	436.34	667.14	733.75	130.51	714.39	645.8	177.61	643.53	646.37	142.75	732.21	738.61	162.85	621.22	551.06	152.19	657.41	542.72	269.8	559.99	326.5	143.92	621.05	262.52	134.05	553.44	254.37	153.82	624.75	333.93	129.42	589.67	111.64	136.78	606.7	108.94	225.58	518.82	73.019	179.41	525.47	46.173	211.76	522.34	47.397	149.68	697.43	45.821	98.904	727.65	43.466	216.34	795.3	55.397	157.53	572.2	1560.8	309.41	524.15	1292.6	310.27
1801	7.5	757.61	1313.7	317.44	613.5	1543.3	466.9	614.43	1535.9	150.58	677.05	1828.1	311.48	725.26	1066	441.84	732.09	1059.2	189.48	527.3	1085.2	344.08	528.34	1088.2	263.8	662.82	1001.3	491.23	633.68	995.71	135.76	639.08	1142.9	470.36	662.72	1135.2	151.44	513.91	1051.6	306.77	641.9	752.78	497.52	691.44	667.79	468.77	623.72	666.49	482.26	713.84	755.48	481.26	635.09	552.21	476.75	641.69	544.76	349.91	570.23	327.93	494.74	626.53	259.33	480.46	562.03	250.94	486.08	635.44	335.24	489.12	587.62	112.12	472.12	605.59	112.17	385.26	522.32	74.16	428.71	531.13	43.437	397.88	528.96	42.888	463.45	704.51	36.378	507.03	734.39	44.481	387.46	799.72	54.48	436.34	667.17	733.75	130.51	714.42	645.8	177.6	643.55	646.37	142.75	732.24	738.61	162.84	621.24	551.06	152.19	657.44	542.72	269.8	560	326.51	143.91	621.06	262.52	134.05	553.45	254.37	153.82	624.77	333.93	129.42	589.67	111.64	136.78	606.71	108.94	225.58	518.82	73.02	179.41	525.47	46.174	211.76	522.34	47.398	149.68	697.43	45.821	98.904	727.65	43.464	216.34	795.3	55.394	157.53	572.26	1560.8	309.42	524.18	1292.6	310.27
1802	7.5042	757.65	1313.7	317.43	613.56	1543.3	466.9	614.92	1536	150.53	677.12	1828.1	311.49	725.3	1066	441.84	732.13	1059.2	189.48	527.34	1085.2	344.08	528.38	1088.2	263.79	662.86	1001.3	491.23	633.71	995.7	135.76	639.11	1142.9	470.36	662.75	1135.2	151.43	513.95	1051.6	306.77	641.93	752.78	497.52	691.47	667.79	468.76	623.75	666.49	482.26	713.87	755.47	481.26	635.12	552.21	476.75	641.72	544.76	349.91	570.25	327.93	494.74	626.54	259.32	480.45	562.04	250.95	486.08	635.46	335.24	489.12	587.62	112.13	472.12	605.59	112.17	385.26	522.33	74.159	428.71	531.13	43.437	397.88	528.96	42.888	463.45	704.51	36.377	507.03	734.39	44.48	387.46	799.72	54.479	436.34	667.2	733.75	130.5	714.45	645.8	177.6	643.58	646.37	142.75	732.27	738.61	162.84	621.27	551.06	152.18	657.47	542.72	269.79	560.02	326.52	143.89	621.07	262.52	134.05	553.46	254.37	153.83	624.78	333.93	129.42	589.67	111.64	136.78	606.71	108.94	225.58	518.83	73.021	179.41	525.47	46.174	211.76	522.34	47.399	149.68	697.43	45.821	98.904	727.65	43.462	216.34	795.3	55.391	157.53	572.31	1560.8	309.43	524.21	1292.6	310.27
1803	7.5083	757.69	1313.7	317.43	613.62	1543.3	466.91	615.31	1536	150.5	677.19	1828.1	311.51	725.33	1066	441.84	732.16	1059.2	189.47	527.37	1085.2	344.09	528.41	1088.2	263.79	662.89	1001.3	491.23	633.74	995.7	135.75	639.14	1142.9	470.36	662.78	1135.2	151.42	513.98	1051.6	306.77	641.96	752.78	497.52	691.5	667.79	468.76	623.78	666.49	482.26	713.91	755.47	481.26	635.15	552.2	476.75	641.74	544.76	349.91	570.26	327.93	494.74	626.56	259.32	480.45	562.05	250.95	486.08	635.47	335.23	489.12	587.62	112.13	472.12	605.59	112.17	385.25	522.33	74.159	428.71	531.13	43.438	397.88	528.96	42.889	463.45	704.51	36.377	507.03	734.39	44.478	387.46	799.72	54.479	436.34	667.23	733.75	130.5	714.48	645.8	177.59	643.61	646.38	142.74	732.3	738.61	162.83	621.3	551.06	152.18	657.49	542.72	269.79	560.04	326.53	143.86	621.08	262.52	134.05	553.47	254.37	153.83	624.79	333.94	129.42	589.67	111.64	136.77	606.71	108.94	225.58	518.83	73.021	179.41	525.47	46.174	211.76	522.34	47.399	149.68	697.43	45.821	98.904	727.65	43.461	216.34	795.3	55.388	157.53	572.37	1560.8	309.44	524.23	1292.6	310.27
1804	7.5125	757.73	1313.7	317.42	613.69	1543.3	466.92	615.63	1536.1	150.48	677.26	1828.1	311.52	725.37	1066	441.84	732.2	1059.2	189.46	527.41	1085.2	344.09	528.45	1088.2	263.79	662.93	1001.3	491.22	633.77	995.7	135.75	639.17	1142.9	470.36	662.81	1135.2	151.42	514.02	1051.6	306.77	642	752.78	497.52	691.53	667.79	468.76	623.81	666.48	482.26	713.94	755.47	481.25	635.18	552.2	476.74	641.76	544.75	349.91	570.27	327.93	494.73	626.57	259.31	480.45	562.06	250.95	486.08	635.49	335.23	489.12	587.62	112.13	472.11	605.6	112.17	385.25	522.33	74.158	428.71	531.13	43.439	397.88	528.96	42.89	463.45	704.51	36.377	507.03	734.39	44.477	387.46	799.72	54.478	436.34	667.26	733.74	130.49	714.51	645.8	177.59	643.64	646.38	142.74	732.33	738.6	162.83	621.32	551.06	152.18	657.52	542.72	269.79	560.05	326.55	143.84	621.09	262.51	134.05	553.48	254.37	153.83	624.81	333.94	129.42	589.67	111.65	136.77	606.71	108.94	225.58	518.83	73.022	179.41	525.47	46.175	211.76	522.34	47.4	149.68	697.43	45.822	98.904	727.65	43.459	216.34	795.3	55.385	157.53	572.43	1560.8	309.45	524.25	1292.6	310.26
1805	7.5167	757.77	1313.7	317.41	613.75	1543.3	466.93	615.88	1536.1	150.46	677.33	1828.1	311.54	725.4	1066	441.83	732.23	1059.2	189.46	527.44	1085.2	344.09	528.48	1088.2	263.79	662.97	1001.3	491.22	633.8	995.69	135.75	639.2	1142.9	470.36	662.84	1135.2	151.41	514.05	1051.6	306.77	642.03	752.78	497.52	691.57	667.79	468.75	623.84	666.48	482.26	713.97	755.47	481.25	635.21	552.2	476.74	641.79	544.75	349.91	570.28	327.93	494.73	626.58	259.3	480.44	562.07	250.96	486.08	635.5	335.23	489.12	587.62	112.13	472.11	605.6	112.17	385.25	522.33	74.157	428.7	531.13	43.44	397.88	528.96	42.892	463.45	704.51	36.377	507.03	734.39	44.476	387.46	799.72	54.478	436.34	667.29	733.74	130.49	714.53	645.8	177.58	643.66	646.38	142.73	732.36	738.6	162.82	621.35	551.06	152.17	657.54	542.72	269.79	560.07	326.56	143.82	621.1	262.51	134.04	553.49	254.38	153.83	624.82	333.94	129.42	589.68	111.65	136.77	606.71	108.94	225.58	518.83	73.023	179.41	525.47	46.175	211.76	522.34	47.401	149.68	697.43	45.822	98.904	727.65	43.458	216.34	795.3	55.383	157.53	572.49	1560.8	309.46	524.27	1292.6	310.26
1806	7.5208	757.81	1313.6	317.4	613.82	1543.3	466.93	616.07	1536.1	150.45	677.4	1828.1	311.56	725.44	1066	441.83	732.26	1059.2	189.45	527.48	1085.2	344.09	528.52	1088.2	263.79	663	1001.3	491.22	633.83	995.69	135.74	639.23	1142.9	470.36	662.87	1135.2	151.4	514.08	1051.6	306.77	642.06	752.78	497.52	691.6	667.78	468.75	623.87	666.48	482.25	714.01	755.47	481.25	635.24	552.2	476.74	641.81	544.75	349.91	570.29	327.93	494.72	626.59	259.3	480.44	562.08	250.97	486.08	635.52	335.23	489.11	587.63	112.13	472.11	605.6	112.17	385.25	522.33	74.157	428.7	531.13	43.44	397.88	528.96	42.893	463.45	704.51	36.378	507.03	734.39	44.475	387.46	799.72	54.478	436.34	667.32	733.74	130.48	714.56	645.81	177.58	643.69	646.39	142.73	732.39	738.6	162.82	621.38	551.06	152.17	657.57	542.72	269.78	560.08	326.57	143.79	621.11	262.51	134.04	553.5	254.38	153.83	624.83	333.94	129.41	589.68	111.65	136.77	606.71	108.95	225.58	518.83	73.023	179.41	525.47	46.175	211.76	522.34	47.401	149.68	697.43	45.822	98.904	727.65	43.457	216.34	795.3	55.381	157.54	572.55	1560.8	309.47	524.29	1292.6	310.26
